<svg xmlns="http://www.w3.org/2000/svg" xmlns:xlink="http://www.w3.org/1999/xlink" width="232" height="225" viewBox="0 0 232 225">
  <defs>
    <clipPath id="clip-path">
      <rect id="Rectangle_2901" data-name="Rectangle 2901" width="232" height="225" transform="translate(72 233)" fill="#f5f5f5"/>
    </clipPath>
  </defs>
  <g id="Mask_Group_1005" data-name="Mask Group 1005" transform="translate(-72 -233)" clip-path="url(#clip-path)">
    <g id="Successful_purchase-pana" data-name="Successful purchase-pana" transform="translate(58.251 215.597)">
      <g id="freepik--background-complete--inject-32">
        <path id="Path_4871" data-name="Path 4871" d="M54.949,142.462s-4.7,1.243-.746,11.392a126.573,126.573,0,0,0,6.887,15.275s.647,2.33-1.274,2.485-6.012-.922-7.083,1.3.4,4.738,3.728,7.073,10.428,7.726,11.071,8.212,1.2,1.595-.1,1.911-10.734.352-10.449,4.831,10.625,9.465,11.744,10.035,1.346,1.087,1.191,1.714-3.335.347-6.022.466-5.779.73-5.4,3.3S64.715,218.941,79.99,222l7.177.958,4.531-5.7c8.948-12.764,9.093-21.059,7.6-23.182s-4.142-.435-6.188,1.331-4.142,4.142-4.66,3.821-.746-.885-.326-2.071S92.588,185.253,89.7,181.8s-9.745,3.05-10.9,3.707-1.512-.518-1.388-1.315,1.553-9.595,2.351-13.582.212-6.788-2.185-7.694c-2.309-.87-4.526,2.734-6.027,3.946s-2.636-.922-2.636-.922a126.457,126.457,0,0,0-5.551-15.808c-4.137-10.076-8.5-7.653-8.5-7.653" fill="#ebebeb"/>
        <path id="Path_4872" data-name="Path 4872" d="M87.368,224.689c-3.008-7.41-8.145-20.676-12.6-32.041S66.258,171,63.285,163.578c-1.491-3.7-2.693-6.731-3.531-8.8l-.958-2.392-.243-.621a2.074,2.074,0,0,1-.078-.217s.036.067.1.207.15.352.264.616l1,2.377c.86,2.071,2.071,5.059,3.594,8.766,3.008,7.41,7.083,17.683,11.547,29.049s9.564,24.637,12.541,32.062" fill="#e0e0e0"/>
        <path id="Path_4873" data-name="Path 4873" d="M58.392,174.659a2.372,2.372,0,0,1,.487.192c.311.135.751.342,1.289.6,1.082.518,2.558,1.289,4.173,2.164l4.142,2.247,1.253.668a2.408,2.408,0,0,1,.45.269,3.174,3.174,0,0,1-.492-.186c-.306-.135-.746-.347-1.284-.611-1.077-.518-2.542-1.32-4.142-2.19L60.127,175.6l-1.253-.668A2.014,2.014,0,0,1,58.392,174.659Z" fill="#e0e0e0"/>
        <path id="Path_4874" data-name="Path 4874" d="M70.705,180.386c-.057-.026,1.383-3.138,3.216-6.949s3.361-6.882,3.417-6.856-1.383,3.143-3.216,6.954S70.762,180.417,70.705,180.386Z" fill="#e0e0e0"/>
        <path id="Path_4875" data-name="Path 4875" d="M76.769,198.146a2.59,2.59,0,0,1,.337-.414l.973-1.082c.818-.911,1.942-2.18,3.107-3.625s2.227-2.781,2.967-3.759c.352-.456.642-.844.88-1.155a2.3,2.3,0,0,1,.342-.409,2.2,2.2,0,0,1-.269.461c-.192.285-.466.7-.823,1.2-.709,1-1.724,2.361-2.92,3.806s-2.34,2.7-3.19,3.588c-.425.44-.772.8-1.036,1.036a2.4,2.4,0,0,1-.368.352Z" fill="#e0e0e0"/>
        <path id="Path_4876" data-name="Path 4876" d="M64.492,195.417a2.029,2.029,0,0,1,.518.057l1.32.238c1.113.212,2.651.518,4.344.875s3.221.689,4.329.937l1.3.311a2.07,2.07,0,0,1,.476.145,2.014,2.014,0,0,1-.518-.057l-1.32-.243c-1.118-.212-2.651-.518-4.344-.87s-3.226-.689-4.329-.942l-1.31-.306a1.962,1.962,0,0,1-.471-.145Z" fill="#e0e0e0"/>
        <path id="Path_4877" data-name="Path 4877" d="M67.832,211.78a3.454,3.454,0,0,1,.632.083l1.693.3c1.429.264,3.4.642,5.572,1.072s4.142.839,5.566,1.144l1.678.368a3.33,3.33,0,0,1,.611.166,3.105,3.105,0,0,1-.627-.078l-1.693-.3c-1.429-.264-3.4-.642-5.577-1.077s-4.142-.839-5.561-1.139l-1.683-.373A3.7,3.7,0,0,1,67.832,211.78Z" fill="#e0e0e0"/>
        <path id="Path_4878" data-name="Path 4878" d="M83.252,214.726a3.655,3.655,0,0,1,.409-.518l1.181-1.414c1-1.2,2.366-2.853,3.827-4.728s2.739-3.594,3.656-4.852l1.087-1.491a4.223,4.223,0,0,1,.419-.518,3.4,3.4,0,0,1-.347.58c-.238.368-.585.891-1.036,1.553-.885,1.279-2.144,3.024-3.625,4.9s-2.853,3.516-3.878,4.691c-.518.58-.937,1.036-1.238,1.367a3.974,3.974,0,0,1-.456.43Z" fill="#e0e0e0"/>
        <rect id="Rectangle_2902" data-name="Rectangle 2902" width="50.289" height="77.334" rx="3.904" transform="translate(158.554 176.213) rotate(-31.14)" fill="#ebebeb"/>
        <path id="Path_4879" data-name="Path 4879" d="M225.683,212.7a5.333,5.333,0,1,1,2.422-3.289,5.339,5.339,0,0,1-2.422,3.289Z" fill="#fff"/>
        <path id="Path_4880" data-name="Path 4880" d="M226.278,219.231a5.416,5.416,0,0,1-1.346-.166,5.551,5.551,0,1,1,1.346.166Zm0-10.677a5.075,5.075,0,1,0,2.589,9.439h0a5.08,5.08,0,0,0-1.414-9.279,4.9,4.9,0,0,0-1.212-.161Z" fill="#fff"/>
        <path id="Path_4881" data-name="Path 4881" d="M177.605,172.748l-3.676,2.216-.228-.373,3.34-2.019-.518-.865.337-.2Z" fill="#fff"/>
        <path id="Path_4882" data-name="Path 4882" d="M176.57,178.542l-.337.2-1.553-2.589.264-.166,2.418.627a1.414,1.414,0,0,0,1.206-.057c.425-.259.518-.715.171-1.274a1.476,1.476,0,0,0-1.036-.756l.067-.409a1.931,1.931,0,0,1,1.31.984c.451.746.357,1.45-.254,1.817a1.771,1.771,0,0,1-1.517.093l-1.983-.518Z" fill="#fff"/>
        <path id="Path_4883" data-name="Path 4883" d="M179.537,182.032l-.445-.735-.968.58-.228-.378.963-.58-1.253-2.071.274-.166,3.625.476.254.419-3.505-.445.963,1.595.849-.518.223.368-.849.518.445.735Z" fill="#fff"/>
        <path id="Path_4884" data-name="Path 4884" d="M182.938,187.661l-.445-.735-.963.585-.228-.378.963-.585-1.253-2.071.274-.166,3.625.476.254.419-3.505-.445.963,1.595.854-.518.217.368-.849.518.456.72Z" fill="#fff"/>
        <path id="Path_4885" data-name="Path 4885" d="M184.994,190.8c-.621.378-1.377.233-1.916-.663a2.227,2.227,0,0,1-.326-1.6h.409a1.869,1.869,0,0,0,.259,1.388c.378.621.88.772,1.326.518s.59-.756,0-1.693l-.471-.782,1.957-.922,1.212,2.009-.337.2-1.036-1.678-1.243.58.285.471C185.828,189.727,185.647,190.41,184.994,190.8Z" fill="#fff"/>
        <path id="Path_4886" data-name="Path 4886" d="M187.205,194.423a1.336,1.336,0,0,1-1.885-.57c-.59-.979-.233-1.916.927-2.62a1.937,1.937,0,0,1,2.91.518,1.988,1.988,0,0,1,.331.994l-.4.031a1.588,1.588,0,0,0-2.548-1.212,3.213,3.213,0,0,0-.29.2,1.362,1.362,0,0,1,1.3.746,1.294,1.294,0,0,1-.352,1.916Zm-.238-.362a.937.937,0,1,0-.75.079.942.942,0,0,0,.75-.079Z" fill="#fff"/>
        <path id="Path_4887" data-name="Path 4887" d="M190.2,199.477c-.611.373-1.351.212-1.89-.678a2.211,2.211,0,0,1-.326-1.605h.409a1.88,1.88,0,0,0,.264,1.4c.368.611.854.772,1.31.518s.544-.751.129-1.434l-.155-.259.274-.171,1.89.249-1.134-1.88.337-.2,1.429,2.361-.269.161-1.937-.249A1.214,1.214,0,0,1,190.2,199.477Z" fill="#fff"/>
        <path id="Path_4888" data-name="Path 4888" d="M192.466,203.138a1.336,1.336,0,0,1-1.885-.575c-.59-.973-.233-1.916.927-2.615a1.935,1.935,0,0,1,2.915.518,2,2,0,0,1,.326.989l-.394.031a1.553,1.553,0,0,0-.259-.818,1.5,1.5,0,0,0-2.294-.388c-.083.047-.186.119-.29.192a1.388,1.388,0,0,1,1.31.746,1.3,1.3,0,0,1-.357,1.921Zm-.233-.368a.942.942,0,1,0-.751.082A.943.943,0,0,0,192.233,202.77Z" fill="#fff"/>
        <path id="Path_4889" data-name="Path 4889" d="M197.085,204.96l-.264.161-4.339.518-.243-.409,4.251-.518-1.144-1.89-.683.414-.228-.373,1.036-.616Z" fill="#fff"/>
        <path id="Path_4890" data-name="Path 4890" d="M200.259,210.226l-.264.161-4.339.518-.243-.409,4.251-.518-1.144-1.89-.689.419-.223-.373,1.036-.621Z" fill="#fff"/>
        <path id="Path_4891" data-name="Path 4891" d="M199.793,215.43c-.647.394-1.388.083-1.916-.792s-.45-1.662.2-2.071a1.077,1.077,0,0,1,1.336.166.963.963,0,0,1,.456-1.067c.6-.362,1.279-.078,1.75.7s.409,1.522-.186,1.885a.984.984,0,0,1-1.165-.1A1.087,1.087,0,0,1,199.793,215.43Zm-.228-.394c.45-.274.518-.834.109-1.481s-.911-.865-1.362-.59-.518.828-.114,1.481.911.865,1.367.59Zm.4-1.662c.347.57.813.756,1.212.518s.445-.766.114-1.32-.8-.751-1.212-.518S199.627,212.815,199.969,213.375Z" fill="#fff"/>
        <path id="Path_4892" data-name="Path 4892" d="M202.8,218.511a1.935,1.935,0,0,1-2.915-.518,2.03,2.03,0,0,1-.326-.994l.394-.031a1.554,1.554,0,0,0,.259.818,1.5,1.5,0,0,0,2.294.394c.083-.052.186-.119.29-.2a1.382,1.382,0,0,1-1.31-.746,1.295,1.295,0,0,1,.357-1.9,1.331,1.331,0,0,1,1.885.57C204.313,216.849,203.956,217.786,202.8,218.511Zm.414-.958a1,1,0,0,0,.2-1.45.937.937,0,1,0-1.553.989.989.989,0,0,0,1.351.435Z" fill="#fff"/>
        <path id="Path_4893" data-name="Path 4893" d="M206.85,221.1l-3.671,2.221-.228-.378,3.335-2.019-.518-.865.337-.2Z" fill="#fff"/>
        <path id="Path_4894" data-name="Path 4894" d="M205.8,226.915l-.337.207-1.553-2.589.269-.161,2.418.621a1.419,1.419,0,0,0,1.206-.057c.425-.254.518-.715.166-1.274a1.455,1.455,0,0,0-1.036-.756l.067-.4a1.921,1.921,0,0,1,1.315.984c.451.746.357,1.445-.259,1.817a1.761,1.761,0,0,1-1.512.088l-1.983-.518Z" fill="#fff"/>
        <path id="Path_4895" data-name="Path 4895" d="M208.507,229.779c-.616.373-1.357.212-1.89-.678a2.211,2.211,0,0,1-.326-1.605h.409a1.88,1.88,0,0,0,.264,1.4c.368.606.854.772,1.31.518s.518-.751.129-1.434l-.161-.264.28-.166,1.89.249-1.134-1.88.337-.2,1.424,2.361-.264.161-1.937-.249A1.215,1.215,0,0,1,208.507,229.779Z" fill="#fff"/>
        <rect id="Rectangle_2903" data-name="Rectangle 2903" width="1.873" height="34.559" transform="matrix(0.856, -0.517, 0.517, 0.856, 187.441, 205.056)" fill="#fff"/>
        <rect id="Rectangle_2904" data-name="Rectangle 2904" width="1.864" height="17.636" transform="translate(191.535 221.042) rotate(-31.14)" fill="#fff"/>
        <rect id="Rectangle_2905" data-name="Rectangle 2905" width="14.426" height="10.781" rx="2.568" transform="translate(188.645 162.987) rotate(58.86)" fill="#e0e0e0"/>
        <path id="Path_4896" data-name="Path 4896" d="M181.97,167.011l.59-.357,3.847,6.359a1.554,1.554,0,1,0,2.661-1.605l-3.842-6.359.59-.357,3.842,6.359a2.244,2.244,0,1,1-3.842,2.32Z" fill="#ebebeb"/>
        <rect id="Rectangle_2906" data-name="Rectangle 2906" width="0.697" height="5.126" transform="matrix(0.856, -0.517, 0.517, 0.856, 189.741, 173.95)" fill="#ebebeb"/>
        <rect id="Rectangle_2907" data-name="Rectangle 2907" width="37.106" height="3.184" transform="translate(197.125 159.86) rotate(58.86)" fill="#fff"/>
        <path id="Path_4897" data-name="Path 4897" d="M108.375,17.4c-.394,5.592,0,16.01-2.035,21.23s-4.753,10.6-9.838,12.945c-6.276,2.879-13.649,1.657-20.344,3.345C65.667,57.564,58.076,67.19,54.84,77.515s-2.879,21.385-2.491,32.2l53.54,7.425s.28-21.748,4.95-27.7S137.7,78.151,145.015,61.887c6.6-14.638,8.585-37.851,8.585-37.851Z" fill="#f5f5f5"/>
        <path id="Path_4898" data-name="Path 4898" d="M121.455,32.1l-.694-1.279a1.91,1.91,0,0,1-.29,0l-.984-.119-.145,1.16-.383-.047.45-3.661,1.367.171c.932.114,1.434.658,1.341,1.439a1.144,1.144,0,0,1-.979,1.036l.735,1.362Zm.274-2.4c.072-.585-.274-.968-1-1.036l-.973-.119-.223,1.833.968.119c.735.052,1.186-.217,1.232-.792Z" fill="#e0e0e0"/>
        <path id="Path_4899" data-name="Path 4899" d="M125.359,32.254l-.041.331-2.589-.316.45-3.656,2.506.306-.041.337L123.531,29l-.161,1.3,1.89.233-.041.326-1.89-.233-.171,1.357Z" fill="#e0e0e0"/>
        <path id="Path_4900" data-name="Path 4900" d="M126.1,30.83a1.854,1.854,0,0,1,2.149-1.626,1.786,1.786,0,0,1,1.269.7l-.274.217a1.445,1.445,0,0,0-1.036-.57,1.528,1.528,0,1,0-.378,3.029,1.44,1.44,0,0,0,1.139-.306l.212.28a1.8,1.8,0,0,1-1.408.368A1.854,1.854,0,0,1,126.1,30.83Z" fill="#e0e0e0"/>
        <path id="Path_4901" data-name="Path 4901" d="M132.588,33.139l-.041.337-2.579-.337.45-3.656,2.506.311-.041.331-2.123-.259-.161,1.3,1.89.233-.036.331-1.89-.233-.171,1.357Z" fill="#e0e0e0"/>
        <path id="Path_4902" data-name="Path 4902" d="M133.908,29.934l.383.052-.45,3.671-.388-.052Z" fill="#e0e0e0"/>
        <path id="Path_4903" data-name="Path 4903" d="M138.19,31.736c-.1.782-.72,1.181-1.647,1.067l-.984-.124-.14,1.155-.388-.047.45-3.656,1.367.171C137.781,30.416,138.289,30.954,138.19,31.736Zm-.388-.047c.072-.585-.269-.963-1-1.036l-.968-.119-.228,1.828.973.119C137.3,32.554,137.735,32.264,137.8,31.689Z" fill="#e0e0e0"/>
        <path id="Path_4904" data-name="Path 4904" d="M139.728,31l-1.284-.161.041-.331,2.957.362-.041.337-1.284-.135-.409,3.324-.388-.052Z" fill="#e0e0e0"/>
        <path id="Path_4905" data-name="Path 4905" d="M133.944,41.036c0,.078-4.893-.518-10.9-1.346s-10.874-1.553-10.874-1.616,4.888.518,10.874,1.346S133.949,40.963,133.944,41.036Z" fill="#e0e0e0"/>
        <path id="Path_4906" data-name="Path 4906" d="M133.354,45.4c0,.078-4.888-.518-10.874-1.346s-10.874-1.553-10.874-1.616,4.888.518,10.874,1.346S133.364,45.323,133.354,45.4Z" fill="#e0e0e0"/>
        <path id="Path_4907" data-name="Path 4907" d="M131.36,49.843c0,.072-4.888-.518-10.874-1.346s-10.874-1.553-10.874-1.621,4.883.518,10.874,1.351S131.371,49.771,131.36,49.843Z" fill="#e0e0e0"/>
        <path id="Path_4908" data-name="Path 4908" d="M127.731,54.327c0,.078-4.888-.518-10.9-1.346s-10.874-1.553-10.874-1.616,4.888.518,10.9,1.346S127.741,54.255,127.731,54.327Z" fill="#e0e0e0"/>
        <path id="Path_4909" data-name="Path 4909" d="M121.947,58.806c0,.072-4.888-.518-10.874-1.351S100.2,55.9,100.2,55.839s4.888.518,10.874,1.351S121.957,58.729,121.947,58.806Z" fill="#e0e0e0"/>
        <path id="Path_4910" data-name="Path 4910" d="M143.694,42.491a27.164,27.164,0,0,1-5.313-.865,13.774,13.774,0,0,1,2.682.3A13.493,13.493,0,0,1,143.694,42.491Z" fill="#e0e0e0"/>
        <path id="Path_4911" data-name="Path 4911" d="M143.508,46.379a13.774,13.774,0,0,1-2.667-.3,13.494,13.494,0,0,1-2.63-.564,12.867,12.867,0,0,1,2.677.3,13.727,13.727,0,0,1,2.62.559Z" fill="#e0e0e0"/>
        <path id="Path_4912" data-name="Path 4912" d="M142.188,51.78a13.867,13.867,0,0,1-2.682-.311,16.44,16.44,0,0,1-2.63-.554,11.5,11.5,0,0,1,2.677.285A13.464,13.464,0,0,1,142.188,51.78Z" fill="#e0e0e0"/>
        <path id="Path_4913" data-name="Path 4913" d="M140.282,56.311A13.867,13.867,0,0,1,137.6,56a16.611,16.611,0,0,1-2.63-.554,11.5,11.5,0,0,1,2.677.285,13.354,13.354,0,0,1,2.636.58Z" fill="#e0e0e0"/>
        <path id="Path_4914" data-name="Path 4914" d="M136.181,60.634a13.83,13.83,0,0,1-2.682-.311,15.788,15.788,0,0,1-2.63-.554,11.3,11.3,0,0,1,2.672.29,13.705,13.705,0,0,1,2.641.575Z" fill="#e0e0e0"/>
        <path id="Path_4915" data-name="Path 4915" d="M117.023,64.274c0,.072-7.332-.9-16.352-2.18S84.339,59.723,84.349,59.65s7.332.9,16.357,2.18S117.023,64.207,117.023,64.274Z" fill="#e0e0e0"/>
        <path id="Path_4916" data-name="Path 4916" d="M113.222,68.867a3.142,3.142,0,0,1-.362-.031l-1.036-.135-3.78-.554L95.586,66.232c-4.862-.766-9.258-1.481-12.427-2.014l-3.764-.647c-.445-.083-.787-.145-1.036-.2a1.6,1.6,0,0,1-.352-.093,2.309,2.309,0,0,1,.362.041l1.036.145,3.78.564,12.458,1.931,12.427,2,3.764.637,1.036.186a1.45,1.45,0,0,1,.352.083Z" fill="#e0e0e0"/>
        <path id="Path_4917" data-name="Path 4917" d="M106.387,73.041a6.079,6.079,0,0,1-1.346-.119c-.875-.114-2.144-.29-3.713-.518C98.2,71.953,93.872,71.3,89.1,70.55s-9.093-1.445-12.215-1.962l-3.7-.621-1-.186a1.58,1.58,0,0,1-.347-.083,1.5,1.5,0,0,1,.352.031l1.01.129,3.713.518,12.225,1.88,12.215,1.937Z" fill="#e0e0e0"/>
        <path id="Path_4918" data-name="Path 4918" d="M129.341,66.8a13.867,13.867,0,0,1-2.682-.311,16.611,16.611,0,0,1-2.63-.554,11.5,11.5,0,0,1,2.677.285,13.24,13.24,0,0,1,2.636.58Z" fill="#e0e0e0"/>
        <path id="Path_4919" data-name="Path 4919" d="M124.065,69.727a13.869,13.869,0,0,1-2.682-.311,16.612,16.612,0,0,1-2.63-.554,11.5,11.5,0,0,1,2.677.285,13.24,13.24,0,0,1,2.636.58Z" fill="#e0e0e0"/>
        <path id="Path_4920" data-name="Path 4920" d="M116.96,74.672a13.867,13.867,0,0,1-2.682-.311,15.942,15.942,0,0,1-2.63-.554,11.353,11.353,0,0,1,2.677.29A13.463,13.463,0,0,1,116.96,74.672Z" fill="#e0e0e0"/>
        <path id="Path_4921" data-name="Path 4921" d="M103.384,82.48c0,.078-9.067-1.258-20.194-2.972S63,76.339,63,76.267s9.061,1.258,20.194,2.977S103.394,82.408,103.384,82.48Z" fill="#e0e0e0"/>
        <path id="Path_4922" data-name="Path 4922" d="M97.962,92.282c0,.072-2.983-.347-6.628-.937s-6.6-1.129-6.586-1.2,2.983.347,6.628.937S97.973,92.2,97.962,92.282Z" fill="#e0e0e0"/>
      </g>
      <g id="freepik--Floor--inject-32">
        <path id="Path_4923" data-name="Path 4923" d="M240.989,240.129c0,.078-49.942.135-111.534.135s-111.544-.057-111.544-.135,49.931-.135,111.544-.135S240.989,240.057,240.989,240.129Z" fill="#263238"/>
      </g>
      <g id="freepik--Icons--inject-32">
        <rect id="Rectangle_2908" data-name="Rectangle 2908" width="59.35" height="56.29" rx="3.516" transform="translate(162.828 62.325) rotate(-8.04)" fill="#0b6f70"/>
        <path id="Path_4924" data-name="Path 4924" d="M207.177,93.054a2.31,2.31,0,0,1-.394.083l-1.134.186-4.225.647-14.131,2.071h-.114l-.031-.114c-.212-.735-.44-1.507-.668-2.294-1.921-6.731-3.625-12.722-4.759-16.642l.093.057-3.77.518-1,.124a2.254,2.254,0,0,1-.352,0,1.982,1.982,0,0,1,.342-.073l1-.166,3.759-.58h.072v.067l4.857,16.616.663,2.3-.145-.1,14.188-1.968,4.215-.564,1.144-.14A2.505,2.505,0,0,1,207.177,93.054Z" fill="#ebebeb"/>
        <path id="Path_4925" data-name="Path 4925" d="M186.128,91.873h.1l.29-.057,1.134-.181,4.251-.652,14.664-2.154-.114.124c.083-2.532.171-5.271.259-8.1.047-1.455.093-2.889.14-4.256l.15.14-17.3,2.439-5.121.694-1.383.176-.362.041h-.124a.42.42,0,0,1,.124-.031l.352-.062,1.377-.223,5.116-.777,17.284-2.527h.155v.161c-.041,1.367-.088,2.8-.135,4.256-.093,2.832-.186,5.572-.269,8.1v.078h-.109l-14.68,2.071-4.256.575-1.139.145-.3.031Z" fill="#ebebeb"/>
        <path id="Path_4926" data-name="Path 4926" d="M193.041,100.593c-.026,0-.052-.176-.181-.456a2,2,0,0,0-.875-.927,1.886,1.886,0,1,0-1.315,3.49,1.921,1.921,0,0,0,1.745-.518,1.973,1.973,0,0,0,.58-1.139c.047-.306,0-.487.047-.487a1.036,1.036,0,0,1,.062.518,2.009,2.009,0,0,1-.554,1.263,2.121,2.121,0,1,1-.476-3.314,2.009,2.009,0,0,1,.885,1.036A1.077,1.077,0,0,1,193.041,100.593Z" fill="#ebebeb"/>
        <path id="Path_4927" data-name="Path 4927" d="M205.836,98.755a3.686,3.686,0,0,0-.181-.456,1.983,1.983,0,0,0-.88-.927,1.89,1.89,0,1,0,.435,3.008,1.973,1.973,0,0,0,.58-1.139c.047-.305,0-.487.047-.487a1.036,1.036,0,0,1,.057.518,1.978,1.978,0,0,1-.549,1.263,2.121,2.121,0,1,1-.476-3.314,2.009,2.009,0,0,1,.885,1.036,1.077,1.077,0,0,1,.083.5Z" fill="#ebebeb"/>
        <circle id="Ellipse_339" data-name="Ellipse 339" cx="5.732" cy="5.732" r="5.732" transform="matrix(0.552, -0.834, 0.834, 0.552, 197.667, 76.338)" fill="#fafafa"/>
        <path id="Path_4928" data-name="Path 4928" d="M208.383,72.16a5.552,5.552,0,0,1-.606,1.036c-.4.611-.973,1.439-1.616,2.351l-.689.968-.072.1-.1-.067a18.346,18.346,0,0,1-2.32-1.652,18.842,18.842,0,0,1,2.46,1.434l-.176.031.683-.973c.642-.911,1.238-1.724,1.678-2.309A5.25,5.25,0,0,1,208.383,72.16Z" fill="#0b6f70"/>
        <rect id="Rectangle_2909" data-name="Rectangle 2909" width="48.083" height="45.603" rx="3.516" transform="translate(179.558 119.208) rotate(14.15)" fill="#455a64"/>
        <path id="Path_4929" data-name="Path 4929" d="M186.62,140.9l.362,9.89,18.123,4.572,5.121-8.119a8.06,8.06,0,0,0-3.034-1.134l2.133-9.89a1.393,1.393,0,0,0-1.59-1.667l-1.952.326-10.227-2.589-1.036-.885a1.367,1.367,0,0,0-2.227.715l-2.392,9.755a7.948,7.948,0,0,0-3.283-.973Z" fill="#fafafa"/>
        <path id="Path_4930" data-name="Path 4930" d="M191.663,147.283a7.218,7.218,0,0,0,3.283,3.107,11.138,11.138,0,0,0,4.443,1.036,3.083,3.083,0,0,0,2.346-.632,3.494,3.494,0,0,0,.673-2.423,11.687,11.687,0,0,0-.269-3.293,3.961,3.961,0,0,0-1.931-2.589,4.739,4.739,0,0,0-4.277.544,11.2,11.2,0,0,0-4.142,4.085" fill="#e0e0e0"/>
        <rect id="Rectangle_2910" data-name="Rectangle 2910" width="0.989" height="8.647" transform="translate(186.969 150.786) rotate(14.15)" fill="#263238"/>
        <rect id="Rectangle_2911" data-name="Rectangle 2911" width="0.989" height="4.417" transform="translate(190.315 151.64) rotate(14.15)" fill="#263238"/>
        <rect id="Rectangle_2912" data-name="Rectangle 2912" width="0.989" height="4.417" transform="translate(199.932 154.067) rotate(14.15)" fill="#263238"/>
        <rect id="Rectangle_2913" data-name="Rectangle 2913" width="0.989" height="8.647" transform="translate(204.166 155.132) rotate(14.15)" fill="#263238"/>
        <path id="Path_4931" data-name="Path 4931" d="M192.145,146.423c-.072,0,.663-3.174,1.641-7.047s1.823-7,1.9-6.98-.658,3.169-1.636,7.047S192.217,146.439,192.145,146.423Z" fill="#263238"/>
        <path id="Path_4932" data-name="Path 4932" d="M202.392,149.007c-.072,0,.658-3.174,1.636-7.047s1.828-7,1.9-6.985-.663,3.174-1.641,7.047S202.459,149.023,202.392,149.007Z" fill="#263238"/>
        <path id="Path_4933" data-name="Path 4933" d="M207.171,146.113a2.8,2.8,0,0,1-.518,0h-.269l-.326.036-.373.047-.409.109a3.78,3.78,0,0,0-1.781,1.113,4.707,4.707,0,0,0-1.144,2.434v.14l-.129-.036-4.852-1.206-5.432-1.388h-.114v-.114a5.106,5.106,0,0,0-.047-2.5,5.411,5.411,0,0,0-.834-1.76,7.332,7.332,0,0,0-1.191-1.243,1.978,1.978,0,0,1,.388.243,4.847,4.847,0,0,1,.917.917,5.365,5.365,0,0,1,.906,1.792,5.235,5.235,0,0,1,.093,2.589l-.088-.14,5.442,1.351,4.841,1.238-.15.1a4.847,4.847,0,0,1,1.238-2.548,3.915,3.915,0,0,1,1.905-1.1l.43-.093.383-.026.331-.026h.28A2.071,2.071,0,0,1,207.171,146.113Z" fill="#263238"/>
        <path id="Path_4934" data-name="Path 4934" d="M191.731,147.257c0,.041-.368,0-.927.124a4.365,4.365,0,0,0-3.293,2.656c-.217.518-.269.885-.316.875a1.906,1.906,0,0,1,.14-.942,4.075,4.075,0,0,1,1.31-1.9,4.142,4.142,0,0,1,2.133-.885,1.869,1.869,0,0,1,.953.067Z" fill="#263238"/>
        <path id="Path_4935" data-name="Path 4935" d="M204.888,155.511c-.041,0,.047-.4.047-1.036a5.375,5.375,0,0,0-.554-2.366,5.3,5.3,0,0,0-1.553-1.859c-.518-.378-.87-.518-.854-.58a2.33,2.33,0,0,1,.963.425,4.826,4.826,0,0,1,2.2,4.386,2.32,2.32,0,0,1-.249,1.03Z" fill="#263238"/>
      </g>
      <g id="freepik--Device--inject-32">
        <path id="Path_4936" data-name="Path 4936" d="M166.043,240.828l-65.155-.3a14.193,14.193,0,0,1-14.126-14.25l.689-163.345A14.2,14.2,0,0,1,101.711,48.8l65.155.3a14.188,14.188,0,0,1,14.126,14.25l-.689,163.34a14.2,14.2,0,0,1-14.26,14.136Z" fill="#263238"/>
        <path id="Path_4937" data-name="Path 4937" d="M166.214,53.685l-12.634-.062a3.143,3.143,0,0,0-3.081,3.195v2.289a3.138,3.138,0,0,1-3.081,3.195L122.8,62.188a3.143,3.143,0,0,1-3.055-3.221V56.673a3.143,3.143,0,0,0-3.055-3.221h-4.443l-11.055-.047A9.942,9.942,0,0,0,91.2,63.3l-.673,159.436a9.942,9.942,0,0,0,9.926,9.962l65.025.3a9.937,9.937,0,0,0,9.983-9.9l.668-159.415a9.937,9.937,0,0,0-9.916-10Z" fill="#fafafa"/>
        <path id="Path_4938" data-name="Path 4938" d="M99.645,70.633a.269.269,0,0,1-.186-.083l-.989-1.036a.238.238,0,0,1-.072-.181.254.254,0,0,1,.078-.181l.994-.948a.254.254,0,0,1,.362,0,.259.259,0,0,1,0,.368l-.808.766.813.849a.259.259,0,0,1,0,.368.269.269,0,0,1-.192.078Z" fill="#263238"/>
        <rect id="Rectangle_2914" data-name="Rectangle 2914" width="70.452" height="18.19" rx="8.347" transform="translate(98.941 205.37)" fill="#0b6f70"/>
        <path id="Path_4939" data-name="Path 4939" d="M125.789,212.355h1.636a2.014,2.014,0,1,1,0,4.023h-1.636Zm1.616,3.656a1.647,1.647,0,1,0,0-3.288h-1.191v3.288Z" fill="#fafafa"/>
        <path id="Path_4940" data-name="Path 4940" d="M130.175,214.369a2.113,2.113,0,1,1,2.118,2.045,2.019,2.019,0,0,1-2.118-2.045Zm3.8,0a1.693,1.693,0,1,0-1.683,1.667,1.626,1.626,0,0,0,1.683-1.667Z" fill="#fafafa"/>
        <path id="Path_4941" data-name="Path 4941" d="M138.708,212.355v4.023h-.347l-2.589-3.262v3.262h-.43v-4.023h.352l2.589,3.262v-3.262Z" fill="#fafafa"/>
        <path id="Path_4942" data-name="Path 4942" d="M142.861,216.01v.368h-2.843v-4.023h2.755v.368h-2.33v1.429h2.071v.362h-2.071v1.5Z" fill="#fafafa"/>
        <path id="Path_4964" data-name="Path 4964" d="M109.509,136.6h-2.19v-1.036h5.6V136.6h-2.19v5.566h-1.222Z" fill="#0b6f70"/>
        <path id="Path_4965" data-name="Path 4965" d="M118.685,139.288v2.889h-1.175v-2.734c0-.9-.445-1.331-1.2-1.331a1.344,1.344,0,0,0-1.408,1.517v2.548h-1.175v-7.006H114.9v2.563a2.252,2.252,0,0,1,1.678-.642A1.945,1.945,0,0,1,118.685,139.288Z" fill="#0b6f70"/>
        <path id="Path_4966" data-name="Path 4966" d="M124.4,139.215v2.951h-1.108v-.616a1.786,1.786,0,0,1-1.584.678c-1.15,0-1.88-.632-1.88-1.507s.57-1.5,2.1-1.5h1.315v-.078c0-.689-.414-1.093-1.253-1.093a2.485,2.485,0,0,0-1.553.518l-.461-.854a3.526,3.526,0,0,1,2.128-.626C123.557,137.072,124.4,137.76,124.4,139.215Zm-1.16,1.372v-.58h-1.217c-.8,0-1.036.3-1.036.668s.362.7.963.7a1.279,1.279,0,0,0,1.289-.787Z" fill="#0b6f70"/>
        <path id="Path_4967" data-name="Path 4967" d="M130.863,139.288v2.889h-1.181v-2.734c0-.9-.44-1.331-1.2-1.331a1.34,1.34,0,0,0-1.4,1.517v2.548H125.9v-5.038h1.124v.652a2.2,2.2,0,0,1,1.735-.709A1.958,1.958,0,0,1,130.863,139.288Z" fill="#0b6f70"/>
        <path id="Path_4968" data-name="Path 4968" d="M134.415,140.008l-.875.834v1.331H132.36v-7h1.181v4.22l2.439-2.263h1.414l-2.1,2.113,2.3,2.926h-1.408Z" fill="#0b6f70"/>
        <path id="Path_4969" data-name="Path 4969" d="M145.667,137.129l-2.356,5.442a1.95,1.95,0,0,1-1.942,1.486,2.071,2.071,0,0,1-1.346-.461l.471-.865a1.258,1.258,0,0,0,.865.347c.414,0,.663-.2.885-.7l.088-.2-2.2-5.054h1.222l1.584,3.723,1.595-3.723Z" fill="#0b6f70"/>
        <path id="Path_4970" data-name="Path 4970" d="M145.843,139.645a2.682,2.682,0,1,1,2.677,2.589,2.537,2.537,0,0,1-2.677-2.589Zm4.179,0a1.5,1.5,0,1,0-1.5,1.553,1.471,1.471,0,0,0,1.5-1.553Z" fill="#0b6f70"/>
        <path id="Path_4971" data-name="Path 4971" d="M157.214,137.129v5.038h-1.124v-.642a2.071,2.071,0,0,1-1.621.7,1.989,1.989,0,0,1-2.17-2.221v-2.879h1.181v2.718c0,.911.43,1.346,1.175,1.346a1.367,1.367,0,0,0,1.377-1.517v-2.548Z" fill="#0b6f70"/>
        <path id="Path_4972" data-name="Path 4972" d="M158.54,141.494a.735.735,0,1,1,.224.529A.73.73,0,0,1,158.54,141.494Zm.067-5.929H160l-.233,4.412h-.937Z" fill="#0b6f70"/>
        <circle id="Ellipse_340" data-name="Ellipse 340" cx="13.556" cy="13.556" r="13.556" transform="translate(121.082 98.579)" fill="#0b6f70"/>
        <path id="Path_4973" data-name="Path 4973" d="M141.313,106.413c.171.14-2.361,3.547-5.654,7.606l-2,2.423-.274.331-.29-.3c-2.589-2.656-4.334-4.624-4.21-4.748s2.1,1.631,4.748,4.2l-.559.057,1.957-2.449C138.325,109.452,141.137,106.273,141.313,106.413Z" fill="#fff"/>
        <path id="Path_4974" data-name="Path 4974" d="M153.9,106.667c-.4-1.424-2.252-1.284-2.252-1.284l.047.989c1.072-.186,1.735,1.067,1.735,1.067Z" fill="#0b6f70"/>
        <path id="Path_4975" data-name="Path 4975" d="M114.625,109.66c-.4-1.424-2.252-1.289-2.252-1.289l.052.994c1.072-.186,1.735,1.067,1.735,1.067Z" fill="#e0e0e0"/>
        <path id="Path_4976" data-name="Path 4976" d="M136.254,89.957c2.149.652,3.485-1.823,3.485-1.823l-1.3-.746c-.642,1.517-2.786,1.341-2.786,1.341Z" fill="#e0e0e0"/>
        <path id="Path_4977" data-name="Path 4977" d="M124.339,92.624c-1,.109-1.118,1.362-1.118,1.362l.668.078c0-.735.917-1.036.917-1.036Z" fill="#0b6f70"/>
        <path id="Path_4978" data-name="Path 4978" d="M165.525,101.8c.145-.994-1.036-1.424-1.036-1.424l-.243.627c.715.181.782,1.144.782,1.144Z" fill="#e0e0e0"/>
        <path id="Path_4979" data-name="Path 4979" d="M130.17,79.539c.145-.994-1.036-1.424-1.036-1.424l-.243.632c.715.181.782,1.139.782,1.139Z" fill="#0b6f70"/>
        <path id="Path_4980" data-name="Path 4980" d="M105.481,95.575c-.176,1.553,1.885,1.937,1.885,1.937l.373-1.036c-1.238-.114-1.414-1.553-1.414-1.553Z" fill="#0b6f70"/>
        <path id="Path_4981" data-name="Path 4981" d="M151.441,89.926c1,.057,1.326-1.16,1.326-1.16l-.647-.186c-.119.725-1.072.875-1.072.875Z" fill="#0b6f70"/>
        <path id="Path_4982" data-name="Path 4982" d="M156.924,94.017a2.325,2.325,0,0,1-.828.078,2.3,2.3,0,0,1-.828-.078A4.184,4.184,0,0,1,156.924,94.017Z" fill="#e0e0e0"/>
        <path id="Path_4983" data-name="Path 4983" d="M157.8,91.764a4.567,4.567,0,0,1,0,1.678,4.288,4.288,0,0,1,0-1.678Z" fill="#e0e0e0"/>
        <path id="Path_4984" data-name="Path 4984" d="M158.737,93.96a2.325,2.325,0,0,1,.828-.078,2.3,2.3,0,0,1,.828.078A4.184,4.184,0,0,1,158.737,93.96Z" fill="#e0e0e0"/>
        <path id="Path_4985" data-name="Path 4985" d="M157.861,96.217a4.313,4.313,0,0,1,0-1.683A4.6,4.6,0,0,1,157.861,96.217Z" fill="#e0e0e0"/>
        <path id="Path_4986" data-name="Path 4986" d="M159.2,95.275c-.031.026-.192-.109-.357-.3s-.264-.378-.233-.4.2.1.357.3S159.234,95.218,159.2,95.275Z" fill="#e0e0e0"/>
        <path id="Path_4987" data-name="Path 4987" d="M159.12,92.686c.031.036-.078.2-.249.368s-.331.285-.362.254.078-.2.249-.368A.964.964,0,0,1,159.12,92.686Z" fill="#e0e0e0"/>
        <path id="Path_4988" data-name="Path 4988" d="M157.225,93.344c-.031.036-.186-.047-.347-.181s-.264-.269-.238-.3.181.047.342.176S157.25,93.313,157.225,93.344Z" fill="#e0e0e0"/>
        <path id="Path_4989" data-name="Path 4989" d="M157.147,94.472c.036.026-.062.186-.217.357s-.306.28-.337.249.062-.192.217-.357S157.116,94.441,157.147,94.472Z" fill="#e0e0e0"/>
        <path id="Path_4990" data-name="Path 4990" d="M111.814,89.4a4.184,4.184,0,0,1-1.657,0,2.325,2.325,0,0,1,.828-.078A2.3,2.3,0,0,1,111.814,89.4Z" fill="#0b6f70"/>
        <path id="Path_4991" data-name="Path 4991" d="M112.694,87.146a4.313,4.313,0,0,1,0,1.683,4.313,4.313,0,0,1,0-1.683Z" fill="#0b6f70"/>
        <path id="Path_4992" data-name="Path 4992" d="M113.631,89.346a4.184,4.184,0,0,1,1.657,0A4.184,4.184,0,0,1,113.631,89.346Z" fill="#0b6f70"/>
        <path id="Path_4993" data-name="Path 4993" d="M112.751,91.6a4.287,4.287,0,0,1,0-1.678A4.288,4.288,0,0,1,112.751,91.6Z" fill="#0b6f70"/>
        <path id="Path_4994" data-name="Path 4994" d="M114.092,90.615c-.036.031-.2-.1-.357-.3s-.269-.373-.233-.4.192.109.357.3S114.123,90.615,114.092,90.615Z" fill="#0b6f70"/>
        <path id="Path_4995" data-name="Path 4995" d="M114.014,88.078c.031.031-.083.2-.249.368s-.331.28-.362.249.078-.192.249-.362S113.983,88.026,114.014,88.078Z" fill="#0b6f70"/>
        <path id="Path_4996" data-name="Path 4996" d="M112.114,88.73c-.026.031-.181-.047-.342-.181s-.269-.269-.238-.305.181.047.342.181S112.145,88.694,112.114,88.73Z" fill="#0b6f70"/>
        <path id="Path_4997" data-name="Path 4997" d="M112.041,89.854c.031.031-.067.192-.217.362s-.306.28-.342.249.067-.192.217-.357S112.005,89.823,112.041,89.854Z" fill="#0b6f70"/>
        <path id="Path_4998" data-name="Path 4998" d="M169.124,67.858a25.373,25.373,0,0,1-3.661.135,25.242,25.242,0,0,1-3.656-.135,24.389,24.389,0,0,1,3.656-.135,24.485,24.485,0,0,1,3.661.135Z" fill="#263238"/>
        <path id="Path_4999" data-name="Path 4999" d="M169.124,69.385a24.486,24.486,0,0,1-3.661.135,24.389,24.389,0,0,1-3.656-.135,25.243,25.243,0,0,1,3.656-.135A25.374,25.374,0,0,1,169.124,69.385Z" fill="#263238"/>
        <path id="Path_5000" data-name="Path 5000" d="M169.124,70.9a24.488,24.488,0,0,1-3.661.135,24.388,24.388,0,0,1-3.656-.135,25.243,25.243,0,0,1,3.656-.135,25.37,25.37,0,0,1,3.661.135Z" fill="#263238"/>
        <rect id="Rectangle_2915" data-name="Rectangle 2915" width="17.051" height="21.525" transform="translate(143.381 196.217) rotate(-179.55)" fill="#ebebeb"/>
        <path id="Path_5001" data-name="Path 5001" d="M136.875,175.332l-.306,20.836-2.693-.021.58-20.836Z" fill="#fafafa"/>
        <path id="Path_5002" data-name="Path 5002" d="M116.7,175.171l9.781.078,17.051.135-17.067,2.242-.145,18.465-9.781-.078Z" fill="#e0e0e0"/>
        <path id="Path_5003" data-name="Path 5003" d="M122.03,175.213l-.388,20.841-2.9-.026.476-20.836Z" fill="#fafafa"/>
        <path id="Path_5004" data-name="Path 5004" d="M129.771,168.87c0,.135-.285.269-.808.4a13.412,13.412,0,0,1-3.868.28,6.363,6.363,0,0,1-.906-.1,7.358,7.358,0,0,1-.994-.212,3.019,3.019,0,0,1-.616-.264,1.978,1.978,0,0,1-.647-.611,1.818,1.818,0,0,1-.28-.937,3.107,3.107,0,0,1,.083-.725,12.6,12.6,0,0,1,.652-2.159,5.815,5.815,0,0,1,.627-1.1,4.661,4.661,0,0,1,.419-.518,3.206,3.206,0,0,1,.57-.461,2.3,2.3,0,0,1,.772-.311,2.04,2.04,0,0,1,.885.026,2.879,2.879,0,0,1,1.165.642,9.569,9.569,0,0,1,2.242,2.75,6.731,6.731,0,0,1,.751,2.242c.067.559,0,.875-.124.9-.274.067-.673-1.036-1.761-2.413a11.1,11.1,0,0,0-2.19-2.071,1.284,1.284,0,0,0-.518-.254.187.187,0,0,0-.093,0,.684.684,0,0,0-.145.078,1.694,1.694,0,0,0-.217.192c-.078.088-.166.2-.243.306a4.225,4.225,0,0,0-.409.746,14.5,14.5,0,0,0-.585,1.828,1.3,1.3,0,0,0-.052.269h-.052c-.062,0-.078.031-.036,0l.062-.047a.187.187,0,0,0,.047.047,1.3,1.3,0,0,0,.243.124,6.733,6.733,0,0,0,.761.228c.264.073.518.129.782.181.518.1,1,.176,1.45.238.906.119,1.662.2,2.185.3S129.766,168.74,129.771,168.87Z" fill="#e0e0e0"/>
        <path id="Path_5005" data-name="Path 5005" d="M129.419,169.025c-.047-.269,1.227-.668,3.216-1.253a27.353,27.353,0,0,0,3.355-1.2,3.4,3.4,0,0,0,.73-.4c.078-.067.114-.124.1-.119s0,.078-.026.041a2.073,2.073,0,0,0-.119-.3l-.249-.518a8.284,8.284,0,0,0-.518-.927,3.842,3.842,0,0,0-.606-.725,3.307,3.307,0,0,0-.342-.274,1.521,1.521,0,0,0-.311-.166.771.771,0,0,0-.518-.047,1.646,1.646,0,0,0-.6.347,13.09,13.09,0,0,0-2.33,2.532c-1.144,1.626-1.445,2.895-1.729,2.853-.124,0-.217-.362-.171-.989a7.115,7.115,0,0,1,.735-2.537,11.169,11.169,0,0,1,2.335-3.179,3.361,3.361,0,0,1,1.212-.761,2.589,2.589,0,0,1,1.688,0,3.484,3.484,0,0,1,.709.352,4.291,4.291,0,0,1,.575.435,5.432,5.432,0,0,1,.932,1.087,8.919,8.919,0,0,1,.637,1.155l.249.549a3.066,3.066,0,0,1,.254.782,1.761,1.761,0,0,1-.192,1.129,2.113,2.113,0,0,1-.632.7,4.758,4.758,0,0,1-1.165.58,17.575,17.575,0,0,1-3.733.9C130.775,169.351,129.45,169.274,129.419,169.025Z" fill="#ebebeb"/>
        <rect id="Rectangle_2916" data-name="Rectangle 2916" width="25.062" height="7.125" transform="translate(138.669 175.336) rotate(-179.55)" fill="#e0e0e0"/>
        <rect id="Rectangle_2917" data-name="Rectangle 2917" width="22.654" height="7.125" transform="translate(145.474 175.388) rotate(-179.55)" fill="#ebebeb"/>
        <path id="Path_5006" data-name="Path 5006" d="M138.573,168.217l-.161,7.156-2.641-.052.186-7.125Z" fill="#fafafa"/>
        <path id="Path_5007" data-name="Path 5007" d="M119.8,168.109l-.259,7.094-2.9-.026.155-7.13Z" fill="#fafafa"/>
        <rect id="Rectangle_2918" data-name="Rectangle 2918" width="9.662" height="12.194" transform="translate(154.465 195.767) rotate(-179.55)" fill="#ebebeb"/>
        <path id="Path_5008" data-name="Path 5008" d="M150.773,183.933l-.171,11.811-1.528-.01.326-11.811Z" fill="#fafafa"/>
        <path id="Path_5009" data-name="Path 5009" d="M139.34,183.845l5.546.041,9.662.078-9.672,1.274-.083,10.46-5.54-.041Z" fill="#e0e0e0"/>
        <path id="Path_5010" data-name="Path 5010" d="M142.359,183.87l-.217,11.806-1.647-.01.269-11.811Z" fill="#fafafa"/>
        <path id="Path_5011" data-name="Path 5011" d="M146.744,180.272c0,.181-.632.4-1.74.518a6.317,6.317,0,0,1-2.025-.166,1.367,1.367,0,0,1-.782-.518,1.18,1.18,0,0,1-.181-.6,2.025,2.025,0,0,1,.047-.445,7.3,7.3,0,0,1,.378-1.248,3.691,3.691,0,0,1,.368-.647,2.294,2.294,0,0,1,.621-.6,1.357,1.357,0,0,1,1.036-.176,1.828,1.828,0,0,1,.709.394,5.349,5.349,0,0,1,1.274,1.605c.518,1.036.445,1.807.274,1.833s-.45-.564-1.077-1.315a6.535,6.535,0,0,0-1.238-1.144.631.631,0,0,0-.233-.119h0l-.036.026a1.124,1.124,0,0,0-.223.249,2.072,2.072,0,0,0-.217.4,7.768,7.768,0,0,0-.326,1.036l-.031.119h-.161a.368.368,0,0,0,.093-.083l.031-.031h0a.518.518,0,0,0,.114.062,9.03,9.03,0,0,0,1.662.388C146.066,179.961,146.744,180.08,146.744,180.272Z" fill="#e0e0e0"/>
        <path id="Path_5012" data-name="Path 5012" d="M146.537,180.365c-.036-.207.684-.482,1.792-.849a18.22,18.22,0,0,0,1.864-.709,1.724,1.724,0,0,0,.368-.212c.031-.026.031-.047,0,0a.311.311,0,0,0-.036.145l-.192-.4a4.962,4.962,0,0,0-.285-.518,1.745,1.745,0,0,0-.311-.373,1.036,1.036,0,0,0-.305-.217.249.249,0,0,0-.161,0,.637.637,0,0,0-.28.155,7.876,7.876,0,0,0-1.32,1.367c-.668.875-.885,1.579-1.1,1.553s-.342-.86.2-2.071a6.213,6.213,0,0,1,1.326-1.869,2.108,2.108,0,0,1,.746-.476,1.631,1.631,0,0,1,1.077,0,1.967,1.967,0,0,1,.445.212,3.013,3.013,0,0,1,.352.269,3.282,3.282,0,0,1,.559.647,6.462,6.462,0,0,1,.373.678l.14.316a1.936,1.936,0,0,1,.161.518,1.181,1.181,0,0,1-.135.761,1.44,1.44,0,0,1-.409.456,2.818,2.818,0,0,1-.7.347,9.441,9.441,0,0,1-2.159.476C147.329,180.65,146.579,180.557,146.537,180.365Z" fill="#e0e0e0"/>
        <rect id="Rectangle_2919" data-name="Rectangle 2919" width="14.203" height="4.039" transform="translate(151.79 183.94) rotate(-179.55)" fill="#e0e0e0"/>
        <rect id="Rectangle_2920" data-name="Rectangle 2920" width="12.836" height="4.039" transform="translate(155.653 183.966) rotate(-179.55)" fill="#ebebeb"/>
        <path id="Path_5013" data-name="Path 5013" d="M151.736,179.9l-.088,4.054-1.5-.031.109-4.034Z" fill="#fafafa"/>
        <path id="Path_5014" data-name="Path 5014" d="M141.1,179.842l-.145,4.018-1.647-.01.088-4.044Z" fill="#fafafa"/>
      </g>
      <g id="freepik--Plant--inject-32">
        <path id="Path_5015" data-name="Path 5015" d="M218.744,205.986a6.426,6.426,0,0,1,3.329,3.77,11.3,11.3,0,0,1,.44,5.111c-.373,3.314-2.258,6.659-4.282,9.32-2.791-2.434-3.433-6.685-3.625-8.86-.3-3.438,1.243-9.838,4.142-9.32" fill="#0b6f70"/>
        <path id="Path_5016" data-name="Path 5016" d="M221.473,229.644a5.478,5.478,0,0,1,1.771-5.209,7.249,7.249,0,0,1,5.364-1.678,3.113,3.113,0,0,1,2.356,1.036A2.34,2.34,0,0,1,231,226.17a4.728,4.728,0,0,1-1.755,1.729c-2.418,1.517-5.038,2.542-7.767,1.724" fill="#0b6f70"/>
        <path id="Path_5017" data-name="Path 5017" d="M217.9,239.8a3.955,3.955,0,0,1,.1-.678c.088-.482.2-1.1.337-1.843a19.257,19.257,0,0,1,1.9-5.877,11.78,11.78,0,0,1,4.22-4.484,8.045,8.045,0,0,1,1.719-.761,4.388,4.388,0,0,1,.518-.129c.135-.031.176-.031.176,0a10.91,10.91,0,0,0-6.4,5.509,20.644,20.644,0,0,0-1.942,5.8c-.171.772-.311,1.4-.414,1.823a3.9,3.9,0,0,1-.212.642Z" fill="#263238"/>
        <path id="Path_5018" data-name="Path 5018" d="M217.993,210.962a1.268,1.268,0,0,1,.036.3c0,.217.031.518.052.854.036.74.083,1.812.124,3.143.083,2.656.15,6.327.135,10.356s-.114,7.726-.228,10.382c-.052,1.331-.1,2.4-.15,3.143-.026.352-.041.632-.057.854h0c.036-.3-.052.192-.052,0v-.86c0-.772.041-1.838.072-3.143.067-2.656.14-6.322.161-10.356s-.026-7.72-.067-10.356c0-1.3-.036-2.377-.052-3.148v-.854A2.259,2.259,0,0,1,217.993,210.962Z" fill="#263238"/>
        <path id="Path_5019" data-name="Path 5019" d="M216.647,231.658a12.831,12.831,0,0,0-7-9.388c-.932-.445-2.149-.74-2.915-.047s-.6,1.942-.223,2.91a10.957,10.957,0,0,0,10.071,6.8" fill="#0b6f70"/>
        <path id="Path_5020" data-name="Path 5020" d="M210.1,225.414a3.206,3.206,0,0,1,.6.259,5.9,5.9,0,0,1,.668.357,9.136,9.136,0,0,1,.849.518,10.73,10.73,0,0,1,.979.735,12.117,12.117,0,0,1,1.036.942,14.208,14.208,0,0,1,1.973,2.532,13.98,13.98,0,0,1,1.295,2.936,11.772,11.772,0,0,1,.331,1.362,10.3,10.3,0,0,1,.166,1.206c.052.373.031.709.047,1a5.7,5.7,0,0,1,0,.761,3.461,3.461,0,0,1-.073.642c-.057,0,.036-.922-.124-2.387a11.52,11.52,0,0,0-.192-1.191c-.078-.425-.212-.87-.347-1.336a14.225,14.225,0,0,0-1.294-2.874,14.6,14.6,0,0,0-1.921-2.5,12.954,12.954,0,0,0-1-.948c-.321-.29-.652-.518-.948-.746C210.915,225.843,210.071,225.46,210.1,225.414Z" fill="#263238"/>
      </g>
    </g>
  </g>
</svg>
