<svg id="Layer_3" data-name="Layer 3" xmlns="http://www.w3.org/2000/svg" xmlns:xlink="http://www.w3.org/1999/xlink" width="24" height="24" viewBox="0 0 24 24">
  <defs>
    <clipPath id="clip-path">
      <rect id="Rectangle_778" data-name="Rectangle 778" width="24" height="24" fill="#fff" opacity="0"/>
    </clipPath>
  </defs>
  <g id="Group_287" data-name="Group 287" clip-path="url(#clip-path)">
    <g id="Layer_2" data-name="Layer 2">
      <g id="Layer_3-2" data-name="Layer 3">
        <rect id="Rectangle_820" data-name="Rectangle 820" width="24" height="24" fill="#fff" opacity="0"/>
      </g>
      <g id="Layer_2-2" data-name="Layer 2" transform="translate(5 1.999)">
        <path id="Path_653" data-name="Path 653" d="M19,16.5a2.42,2.42,0,0,1-.21,1A2.49,2.49,0,0,1,16.5,19H7a.5.5,0,0,0,0,1h3a2,2,0,0,1,1.93,1.5A1.68,1.68,0,0,1,12,22H10.5a.5.5,0,0,0-.5-.5H7A2,2,0,0,1,5.07,20a1.82,1.82,0,0,1,0-1A2,2,0,0,1,7,17.5h9.5a1,1,0,0,0,1-1Z" transform="translate(-5 -1.999)" fill="#fff"/>
        <path id="Path_654" data-name="Path 654" d="M12,22" transform="translate(-5 -1.999)" fill="none"/>
        <path id="Path_655" data-name="Path 655" d="M10.5,22" transform="translate(-5 -1.999)" fill="none"/>
        <path id="Path_656" data-name="Path 656" d="M12,3.5a4.54,4.54,0,0,1,3.21,7.75L12,14.46,8.79,11.25A4.54,4.54,0,0,1,12,3.5M12,2A6,6,0,0,0,7.73,12.31l3.35,3.35a1.3,1.3,0,0,0,1.84,0l3.35-3.35A6,6,0,0,0,12,2Z" transform="translate(-5 -1.999)" fill="#fff"/>
        <path id="Path_657" data-name="Path 657" d="M12,6.6a1,1,0,1,1-1,1,1,1,0,0,1,1-1m0-1.5a2.5,2.5,0,1,0,2.5,2.5A2.5,2.5,0,0,0,12,5.1Z" transform="translate(-5 -1.999)" fill="#fff"/>
      </g>
    </g>
  </g>
</svg>
