<svg xmlns="http://www.w3.org/2000/svg" width="22" height="22" viewBox="0 0 22 22">
  <path id="Icon_color" data-name="Icon color" d="M18,22H6a2,2,0,0,1-2-2H18a2,2,0,0,0,2-2V4a2,2,0,0,1,2,2V18A4,4,0,0,1,18,22Zm-2-4H2a2,2,0,0,1-2-2V2A2,2,0,0,1,2,0H16a2,2,0,0,1,2,2V16A2,2,0,0,1,16,18ZM10.715,8.95h.005a.493.493,0,0,1,.39.191l4,5a.487.487,0,0,0,.387.19.51.51,0,0,0,.36-.149A.5.5,0,0,0,16,13.82V2H2V13.83a.49.49,0,0,0,.49.5h.021a.478.478,0,0,0,.389-.2L5.48,10.7a.509.509,0,0,1,.4-.2.539.539,0,0,1,.41.2l1,1.36a.509.509,0,0,0,.4.2H7.7a.485.485,0,0,0,.383-.19L10.33,9.14A.483.483,0,0,1,10.715,8.95ZM6.5,8A1.5,1.5,0,1,1,8,6.5,1.5,1.5,0,0,1,6.5,8Z" transform="translate(0 0)" fill="#555"/>
</svg>
